<?xml version="1.0" standalone="no"?>
<!DOCTYPE svg PUBLIC "-//W3C//DTD SVG 20010904//EN"
 "http://www.w3.org/TR/2001/REC-SVG-20010904/DTD/svg10.dtd">
<svg version="1.0" xmlns="http://www.w3.org/2000/svg"
 width="400.000000pt" height="400.000000pt" viewBox="0 0 400.000000 400.000000"
 preserveAspectRatio="xMidYMid meet">
<metadata>
Created by potrace 1.11, written by Peter Selinger 2001-2013
</metadata>
<g transform="translate(0.000000,400.000000) scale(0.100000,-0.100000)"
fill="#000000" stroke="none">
<path d="M1827 3784 c-4 -4 -28 -9 -54 -11 -27 -2 -60 -8 -75 -14 -15 -6 -32
-8 -37 -4 -6 3 -11 1 -11 -4 0 -6 -9 -11 -20 -11 -11 0 -20 -5 -20 -11 0 -5
-4 -8 -9 -4 -5 3 -12 1 -16 -5 -4 -6 -11 -8 -16 -5 -5 4 -9 1 -9 -5 0 -6 -4
-8 -10 -5 -5 3 -10 2 -10 -4 0 -5 -9 -12 -20 -16 -10 -3 -34 -18 -52 -33 -42
-35 -148 -145 -143 -150 2 -2 -4 -12 -13 -22 -9 -10 -28 -30 -41 -44 -13 -14
-30 -26 -37 -26 -61 0 -202 -126 -274 -245 -13 -22 -28 -42 -32 -43 -5 -2 -5
-8 -2 -13 3 -5 -4 -26 -15 -45 -12 -20 -19 -40 -16 -45 4 -5 2 -9 -4 -9 -5 0
-10 -8 -11 -17 -2 -54 -8 -85 -16 -93 -5 -5 -7 -43 -4 -85 3 -41 1 -75 -3 -75
-4 0 -3 -9 3 -20 6 -11 7 -20 1 -20 -5 0 -6 -15 -1 -37 5 -21 11 -58 13 -83 2
-25 7 -52 10 -60 6 -16 19 -106 17 -116 -1 -4 4 -11 12 -15 10 -7 10 -9 1 -9
-7 0 -13 -7 -13 -15 0 -8 -4 -15 -10 -15 -14 0 -38 -51 -41 -90 -2 -19 -7 -41
-12 -47 -6 -8 -6 -18 0 -25 5 -7 11 -33 12 -58 3 -56 18 -115 39 -155 9 -16
16 -33 17 -37 0 -3 10 -18 23 -32 12 -15 22 -31 22 -36 0 -6 7 -13 15 -16 8
-4 13 -10 10 -14 -3 -5 -1 -11 5 -15 11 -7 44 -75 42 -87 -1 -3 5 -12 13 -18
8 -7 15 -20 15 -29 0 -19 45 -56 69 -56 8 0 17 -9 20 -20 2 -11 8 -31 14 -45
5 -14 11 -29 12 -35 2 -5 12 -31 24 -56 12 -25 24 -56 27 -70 4 -18 24 -130
24 -135 0 -9 46 -46 82 -67 39 -22 52 -26 68 -17 14 8 20 8 20 0 0 -6 5 -8 10
-5 5 3 10 2 10 -4 0 -5 13 -12 30 -16 44 -10 96 -85 59 -85 -7 0 -18 -8 -26
-17 -8 -10 -11 -12 -7 -4 7 15 -126 -74 -166 -110 -93 -85 -147 -139 -142
-144 3 -3 -2 -5 -11 -5 -8 0 -19 -9 -22 -20 -4 -11 -11 -18 -16 -15 -5 4 -9
-1 -9 -10 0 -9 -4 -13 -10 -10 -5 3 -10 2 -10 -2 0 -8 -112 -49 -158 -58 -10
-2 -35 -10 -55 -19 -20 -8 -37 -13 -37 -11 0 2 -15 -2 -34 -10 -18 -8 -36 -11
-40 -8 -3 4 -6 1 -6 -5 0 -7 -9 -12 -20 -12 -11 0 -20 -5 -20 -12 0 -6 -3 -9
-6 -5 -7 6 -103 -26 -146 -49 -14 -8 -33 -14 -42 -14 -9 0 -16 -4 -16 -10 0
-5 -3 -9 -7 -9 -22 4 -43 -3 -57 -17 -9 -8 -16 -13 -16 -9 0 3 -13 -1 -30 -10
-16 -8 -38 -15 -50 -15 -11 0 -20 -5 -20 -11 0 -5 -4 -8 -9 -5 -5 3 -14 -1
-21 -9 -7 -8 -16 -12 -21 -9 -5 3 -9 -2 -9 -10 0 -8 -9 -23 -19 -33 -26 -24
-72 -164 -59 -180 5 -7 5 -12 -1 -15 -6 -1 -13 -47 -17 -101 l-7 -97 1818 0
1817 0 -5 98 c-6 114 -10 135 -40 222 -26 76 -86 144 -130 148 -15 1 -38 7
-50 14 -12 7 -25 12 -29 13 -3 0 -10 3 -14 7 -4 5 -16 8 -26 8 -10 0 -18 5
-18 10 0 6 -8 10 -18 10 -10 0 -22 3 -26 7 -4 5 -11 8 -14 9 -4 0 -23 8 -43
17 -19 8 -48 19 -65 23 -16 4 -38 13 -49 20 -11 7 -22 13 -25 13 -11 -1 -66
14 -75 21 -10 7 -92 33 -110 36 -5 0 -23 6 -38 12 -15 7 -42 14 -60 18 -18 3
-36 9 -42 15 -5 5 -16 9 -24 9 -17 0 -131 106 -123 115 3 3 -3 5 -13 5 -10 0
-16 2 -13 5 7 8 -55 72 -64 67 -5 -2 -8 4 -8 12 0 9 -3 15 -8 14 -6 -2 -88 58
-112 82 -3 3 -31 17 -62 32 -32 15 -58 33 -58 40 0 6 3 8 6 5 8 -8 44 31 44
46 0 6 3 7 7 4 3 -4 15 0 25 10 10 9 18 13 18 8 0 -4 7 -2 15 5 8 7 25 10 39
6 15 -4 28 0 36 9 7 8 16 13 20 10 5 -3 12 0 15 6 4 5 12 9 19 6 6 -2 19 5 29
15 9 10 14 18 11 18 -4 0 -2 6 4 13 11 12 18 42 27 101 6 37 25 98 36 112 5 6
6 14 2 17 -3 4 0 7 7 7 7 0 11 3 7 6 -3 4 1 21 10 38 19 34 20 37 22 66 1 12
13 25 34 33 29 13 66 44 66 57 0 3 4 18 10 33 6 16 11 33 11 38 0 5 4 9 9 9 5
0 11 10 15 23 3 13 13 33 23 44 28 33 58 75 58 82 1 3 13 30 28 59 15 28 24
52 20 52 -5 0 -1 5 7 10 11 7 11 10 2 10 -8 0 -10 5 -5 13 14 21 20 153 9 202
-3 11 -5 25 -5 32 -1 7 -18 29 -40 50 -39 39 -57 78 -39 89 5 3 8 15 5 25 -3
10 -1 22 4 25 5 3 5 13 -1 25 -6 10 -7 19 -2 19 5 0 10 28 11 62 1 34 7 68 12
74 7 8 6 14 -1 19 -8 5 -8 10 0 20 8 9 8 15 0 20 -6 4 -7 12 0 24 6 12 5 22
-2 29 -9 9 -9 12 2 12 11 0 11 3 2 12 -7 7 -8 17 -2 29 6 10 6 20 2 23 -5 3
-9 28 -11 56 -1 28 -6 62 -11 76 -5 13 -7 24 -4 24 4 0 1 6 -5 13 -6 8 -8 17
-4 20 3 4 1 17 -4 30 -6 12 -19 46 -29 75 -10 28 -22 52 -28 52 -5 0 -6 3 -3
7 4 3 0 15 -10 25 -9 10 -12 18 -7 18 5 0 4 4 -1 8 -6 4 -22 25 -37 47 -49 70
-145 161 -228 214 -36 22 -70 45 -77 51 -7 5 -17 10 -22 10 -6 0 -25 9 -43 19
-17 11 -35 18 -40 15 -4 -3 -8 0 -8 7 0 7 -3 10 -6 6 -4 -3 -24 3 -45 13 -21
11 -47 20 -58 20 -11 0 -23 5 -26 10 -4 6 -11 8 -16 5 -5 -4 -9 -2 -9 4 0 6
-7 8 -16 4 -9 -3 -19 -2 -23 3 -6 10 -92 36 -127 39 -11 1 -24 4 -30 7 -5 3
-45 11 -89 18 -44 7 -99 16 -122 20 -25 4 -43 4 -43 -2 0 -5 -9 -4 -20 2 -15
8 -20 8 -20 -1 0 -8 -4 -9 -13 0 -8 6 -17 8 -20 5z"/>
</g>
</svg>
